/vscmnt/brussel_pixiu_data/_data_brussel/112/vsc11236/PredSimResults/SUBJ09mtu3D/worker5.mot
version=1
nRows=4
nColumns=50
inDegrees=yes
endheader
                time	         pelvis_tilt	         pelvis_list	     pelvis_rotation	           pelvis_tx	           pelvis_ty	           pelvis_tz	       hip_flexion_r	     hip_adduction_r	      hip_rotation_r	        knee_angle_r	       ankle_angle_r	         mtp_angle_r	       hip_flexion_l	     hip_adduction_l	      hip_rotation_l	        knee_angle_l	       ankle_angle_l	         mtp_angle_l	    lumbar_extension	      lumbar_bending	     lumbar_rotation	 ercspn_r/activation	 intobl_r/activation	 extobl_r/activation	    abd_r/activation	    add_r/activation	hamstrings_r/activation	bifemsh_r/activation	glut_max_r/activation	iliopsoas_r/activation	rect_fem_r/activation	  vasti_r/activation	gastroc_r/activation	 soleus_r/activation	tib_ant_r/activation	 ercspn_l/activation	 intobl_l/activation	 extobl_l/activation	    abd_l/activation	    add_l/activation	hamstrings_l/activation	bifemsh_l/activation	glut_max_l/activation	iliopsoas_l/activation	rect_fem_l/activation	  vasti_l/activation	gastroc_l/activation	 soleus_l/activation	tib_ant_l/activation	
          1.77974678	         -2.83805011	          1.62896167	         -7.94534573	          2.20688601	          0.99465067	          0.00448523	        -12.81056136	         -2.56497544	         -1.61433644	        -11.33434976	          8.28528317	         31.11456239	         27.70913926	         -0.42915615	         -6.58566621	         -6.63829435	          4.20772486	          0.21940528	        -14.17976852	          0.31613093	          3.90876328	          0.01002070	          0.01000992	          0.01001064	          0.03266856	          0.01000713	          0.01988677	          0.19531921	          0.02128626	          0.01014642	          0.01006347	          0.01002412	          0.18286701	          0.28400155	          0.01039936	          0.02599753	          0.17986975	          0.05087443	          0.06694104	          0.14101208	          0.03612410	          0.09248743	          0.01001252	          0.14523495	          0.04364151	          0.01685689	          0.01700118	          0.01066657	          0.29540647	
          1.79161176	         -2.86822497	          1.61155634	         -7.76123427	          2.22536130	          0.99275428	          0.00426928	        -13.51033300	         -2.63425700	         -2.20248635	        -11.94145010	          7.29555221	         32.79817554	         27.36684480	         -0.18369368	         -6.36230333	         -7.41065160	          3.82736640	          0.24462115	        -13.76037157	         -0.02282879	          3.90770292	          0.02304655	          0.01003443	          0.01006656	          0.02727558	          0.02260254	          0.02148883	          0.16321516	          0.01777488	          0.01052773	          0.01006627	          0.01002191	          0.15269536	          0.26063206	          0.01000218	          0.02171142	          0.15017598	          0.04247594	          0.05589382	          0.15129357	          0.03016901	          0.07723732	          0.10845556	          0.12125754	          0.03644093	          0.01692206	          0.01420217	          0.01002688	          0.30062251	
          1.80347674	         -2.88131277	          1.61270235	         -7.54249971	          2.24425864	          0.99092880	          0.00404098	        -14.09221678	         -2.72278451	         -2.82025546	        -12.82980483	          6.22695572	         34.46691660	         26.95494551	          0.03189867	         -6.05403268	         -8.58141681	          3.59231282	          0.20666819	        -13.30186179	         -0.39475534	          3.88829808	          0.01930274	          0.01000843	          0.01009221	          0.02277294	          0.01887611	          0.01843881	          0.13634677	          0.01484252	          0.01112507	          0.01003249	          0.01001282	          0.12748933	          0.23550048	          0.01000280	          0.01814022	          0.12539138	          0.03546407	          0.12803367	          0.14137381	          0.04412903	          0.06451584	          0.09485330	          0.10123856	          0.03042833	          0.01413384	          0.01418868	          0.01200438	          0.32658911	
          1.81534171	         -2.88300309	          1.61736364	         -7.28300702	          2.26327493	          0.98939118	          0.00375600	        -14.45634488	         -2.81996877	         -3.46388850	        -14.12706246	          5.03760794	         36.09760445	         26.52599548	          0.23844857	         -5.79403708	         -9.73681916	          3.18206846	          0.20710350	        -12.83836260	         -0.77822532	          3.84449566	          0.03224479	          0.01001129	          0.01005130	          0.01901362	          0.01577410	          0.02045681	          0.11386488	          0.01239448	          0.01406364	          0.01004735	          0.01001823	          0.10644281	          0.19666636	          0.01000377	          0.01518977	          0.10469127	          0.02960983	          0.17277624	          0.14870021	          0.04178573	          0.05388999	          0.11459969	          0.08452478	          0.02540825	          0.01181514	          0.01185380	          0.01002600	          0.35821789	
